<?xml version='1.0' encoding='utf-8'?>
<svg xmlns="http://www.w3.org/2000/svg" viewBox="0 0 800 800"> <defs> <linearGradient id="c" x1="440.88" x2="147.71" y1="316.07" y2="609.23" gradientUnits="userSpaceOnUse"> <stop offset="0"/> <stop stop-opacity="0" offset="1"/> </linearGradient> <mask id="b" maskUnits="userSpaceOnUse"> <circle cx="400" cy="400" r="400" fill="#fff" fill-rule="evenodd" style="isolation:auto;mix-blend-mode:normal"/> </mask> </defs> <circle transform="translate(0 -252.36)" cx="400" cy="652.36" r="400" fill="#1c8adb" fill-rule="evenodd" style="isolation:auto;mix-blend-mode:normal"/> <path d="M312.86 221.04a43.2 43.2 0 0 0-30.66 12.62L7.4 508.45c30.75 154.74 136.99 247 306.6 286.83l216.31-216.32V286.8h-51.86l51.86-51.85v-13.91z" clip-rule="evenodd" fill="url(#c)" fill-rule="evenodd" mask="url(#b)" opacity=".42"/> <path d="M530.32 286.8v292.16H312.86a42.93 42.93 0 0 1-43.18-43V264.04c0-24.03 19.36-43 43.18-43h217.46v13.9H312.86c-14.29 0-25.91 11.4-25.91 26.57 0 13.91 11.62 25.3 25.9 25.3h9.5v83.47l24.67-16.44 24.68 16.44V286.8z" clip-rule="evenodd" fill="#fff" fill-rule="evenodd"/> </svg>