<?xml version='1.0' encoding='utf-8'?>
<svg xmlns="http://www.w3.org/2000/svg" data-name="Ebene 1" version="1.1" viewBox="0 0 800 800"> <defs> <mask id="b" maskUnits="userSpaceOnUse"> <circle cx="402.57" cy="402.47" r="607.37" fill="#fff" stroke-width="1.5184"/> </mask> <mask id="a" maskUnits="userSpaceOnUse"> <circle cx="400" cy="400" r="400" fill="#fff"/> </mask> <linearGradient id="c" x1="384.77" x2="156.29" y1="388.03" y2="616.52" gradientUnits="userSpaceOnUse"> <stop offset="0"/> <stop stop-opacity="0" offset="1"/> </linearGradient> </defs> <circle cx="400" cy="400" r="400" fill="#1c8adb"/> <path d="m398.3 224.73c-5.402 0-10.805 1.0065-15.92 3.0215-42.632 16.793-159.97 63.013-216.4 85.242-1.715 0.676-3.2285 1.6865-4.4805 2.9375l-157.61 157.61c23.434 157.06 89.078 286.68 302.41 320.3l303.59-303.59c0.416-0.416 0.80048-0.86943 1.1465-1.3574 1.976-2.787 2.4787-6.359 1.3477-9.582-4.3784-12.477-7.8532-22.377-12.059-34.361l4.3242-4.3242c3.196-3.197 5.0789-7.577 5.0859-12.248-1e-3 -5.882-2.982-11.364-7.918-14.562v-45.959l33.289-33.289c2.422-2.422 3.8613-5.7494 3.8613-9.3164 0-5.411-3.3117-10.273-8.3457-12.256-56.432-22.229-173.77-68.449-216.4-85.242-5.115-2.015-10.516-3.0215-15.918-3.0215z" clip-rule="evenodd" fill="url(#c)" fill-rule="evenodd" mask="url(#a)" opacity=".42" stroke-miterlimit="2" stroke-width="0"/> <g transform="matrix(.65858 0 0 .65858 134.87 134.94)" clip-rule="evenodd" fill="#fff" fill-rule="evenodd" mask="url(#b)" stroke-linejoin="round" stroke-miterlimit="2"> <g transform="matrix(.94008 0 0 .94008 22.631 67.993)" fill="#fff"> <g transform="matrix(2.6697 0 0 1.6501 -746.05 -567.1)"> <path d="m510.39 559.56c1.962-1.25 4.178-0.849 5.921 1.07 1.742 1.92 2.785 5.109 2.785 8.52v72.731h-0.072c-0.12 49.136-40.048 88.991-89.212 88.991-49.163 0-89.091-39.855-89.211-88.991h-0.072v-72.731c0-3.411 1.042-6.6 2.785-8.52 1.742-1.919 3.959-2.32 5.92-1.07 16.774 10.69 53.457 34.069 70.94 45.211 6.194 3.948 13.083 3.948 19.276 0 17.484-11.142 54.167-34.521 70.94-45.211z" fill="#fff"/> </g> <path d="m401.42 72.695c-8.7253 0-17.452 1.6254-25.714 4.8803-68.859 27.124-258.38 101.78-349.53 137.68-8.1309 3.2034-13.474 11.056-13.474 19.796 0 8.741 5.3428 16.592 13.474 19.796 91.149 35.903 280.67 110.56 349.53 137.68 16.524 6.5099 34.901 6.5099 51.425 0 53.686-21.147 175.94-69.301 272.51-107.34v92.912a28.038 28.038 0 0 0-12.795 23.525 28.038 28.038 0 0 0 15.764 25.162c-7.063 20.129-12.763 36.372-20.039 57.106-1.8267 5.2066-1.0146 10.975 2.1767 15.477 3.1913 4.5016 8.3656 7.1769 13.884 7.1769h32.509c5.5182 0 10.692-2.6753 13.884-7.1769 3.1913-4.5016 4.0035-10.27 2.1767-15.477-7.2755-20.735-12.976-36.977-20.039-57.106a28.038 28.038 0 0 0 15.761-25.162 28.038 28.038 0 0 0-12.789-23.521v-104.93c15.102-5.9486 34.393-13.547 46.525-18.326 8.1309-3.2034 13.48-11.055 13.48-19.796 0-8.7393-5.3491-16.592-13.48-19.796-91.149-35.905-280.67-110.56-349.53-137.68-8.2619-3.2549-16.985-4.8803-25.711-4.8803z" stroke-width="1.9539"/> </g> </g> </svg>