<?xml version='1.0' encoding='utf-8'?>
<svg xmlns="http://www.w3.org/2000/svg" version="1.1" viewBox="0 0 800 800"> <defs> <linearGradient id="d" x1="409.66" x2="165.76" y1="407.88" y2="651.78" gradientUnits="userSpaceOnUse"> <stop offset="0"/> <stop stop-opacity="0" offset="1"/> </linearGradient> <mask id="c" maskUnits="userSpaceOnUse"> <circle cx="400" cy="400" r="400" fill="#fff" fill-rule="evenodd" overflow="visible" style="isolation:auto;mix-blend-mode:normal"/> </mask> </defs> <circle transform="translate(0 -252.36)" cx="400" cy="652.36" r="400" fill="#1c8adb" fill-rule="evenodd" overflow="visible" style="isolation:auto;mix-blend-mode:normal"/> <path d="m550.99 296.39a96.74 96.74 0 0 0-33.44 5.82 80.19 80.19 0 0 0-27.87 17.48l-67.6 67.6c-1.2-3-2.4-6.15-3.59-9.08a1088.7 1088.7 0 0 0-16.72-40.28 1307.3 1307.3 0 0 0-16.97-37.5h-37.75l-76.5 76.51v-6.58h-28.12l36.73-36.73v-33.2h-117.54l-159.52 159.53c14.65 206.63 146.2 302.88 342.5 337.96l274.3-274.3 8.1-28.88c-6.76-0.5-13.1-1.1-19-1.77a85.85 85.85 0 0 1-15.2-3.04 36.02 36.02 0 0 1-8.99-4.15l29.54-29.54a74.36 74.36 0 0 0 7.57-8.87c5.57-7.43 9.87-16.04 12.92-25.84 3.04-9.96 4.56-21.11 4.56-33.44 0-15.03-2.28-28.2-6.85-39.52-4.55-11.49-10.8-21.11-18.74-28.88a77.19 77.19 0 0 0-27.87-17.48 98.19 98.19 0 0 0-33.94-5.82z" fill="url(#d)" font-family="Ubuntu" font-size="32.03" font-weight="700" mask="url(#c)" opacity=".42" text-anchor="middle" style="white-space:pre"/> <path d="m161.61 476v-175.56h117.55v33.18h-78.03v36.74h69.42v33.18h-69.42v72.46zm250.8 0q-2.78-9.12-6.33-18.75l-6.59-19.25h-68.4q-3.29 9.62-6.84 19.25-3.29 9.63-6.08 18.75h-41.04q9.88-28.38 18.75-52.44 8.87-24.07 17.23-45.35 8.61-21.28 16.72-40.28 8.36-19.25 17.22-37.5h37.75q8.61 18.25 16.97 37.5 8.36 19 16.72 40.28 8.62 21.28 17.48 45.35 8.87 24.06 18.75 52.44zm-47.37-135.8q-1.27 3.8-3.8 10.39l-5.83 15.2q-3.29 8.61-7.34 19-3.8 10.38-7.86 21.78h49.91q-4.05-11.4-7.85-21.78-3.8-10.39-7.35-19l-5.83-15.2q-2.53-6.59-4.05-10.39zm139.33 47.88q0 12.92 3.04 23.3 3.3 10.4 9.12 18 6.08 7.34 14.7 11.4 8.61 4.05 19.76 4.05 10.89 0 19.5-4.06 8.87-4.05 14.7-11.4 6.08-7.6 9.12-17.98 3.29-10.39 3.29-23.3 0-12.93-3.3-23.32-3.03-10.64-9.11-17.98-5.83-7.6-14.7-11.66-8.61-4.05-19.5-4.05-11.15 0-19.76 4.3-8.62 4.06-14.7 11.66-5.82 7.35-9.12 17.99-3.04 10.38-3.04 23.05zm134.02 0q0 18.5-4.56 33.44-4.56 14.7-12.92 25.84-8.11 11.15-19.51 18.5-11.4 7.34-25.08 10.63 1.27 5.07 5.57 8.11 4.31 3.3 10.9 5.32 6.58 2.03 15.2 3.04 8.86 1.01 19 1.77l-8.11 28.88q-19.76-0.76-33.95-4.05-13.93-3.04-23.81-8.61-9.63-5.58-15.45-13.68-5.58-8.1-8.62-18.75-15.7-2.03-29.13-8.61-13.43-6.84-23.3-18.24-9.89-11.4-15.46-27.36t-5.57-36.23q0-22.55 7.09-39.52 7.1-17.23 19-28.88 12.16-11.65 27.87-17.48 15.96-5.83 33.44-5.83 17.98 0 33.94 5.83t27.87 17.48q11.9 11.65 18.75 28.88 6.84 16.97 6.84 39.52z" fill="#fff" font-family="Ubuntu" font-size="32.03" font-weight="700" text-anchor="middle" style="white-space:pre" aria-label="FAQ"/> </svg>