<?xml version='1.0' encoding='utf-8'?>
<svg xmlns="http://www.w3.org/2000/svg" version="1.1" viewBox="0 0 800 800"> <defs> <clipPath id="b"> <circle cx="400" cy="400" r="399.96" fill="#1c8adb" stroke="#273b50" stroke-width=".072721px"/> </clipPath> <linearGradient id="a" x1="403.08" x2="136.76" y1="335.9" y2="602.23" gradientUnits="userSpaceOnUse"> <stop offset="0"/> <stop stop-opacity="0" offset="1"/> </linearGradient> </defs> <circle cx="400" cy="400" r="399.96" fill="#1c8adb" stroke="#273b50" stroke-width=".072721px"/> <path d="m400 169.71c-15.395 0-29.395 6.2802-39.273 16.158l-21.441 21.441c-18.981-8.2604-43.135-4.1662-59.494 12.191l-275.05 275.05c2.7372 189.11 90.629 310.8 340.99 303.88l188.16-188.16 0.0918-0.0899c1.141-1.14 1.5909-2.8032 1.1719-4.3652l-33.316-124.34c-1.5021 0.51998-3.0241 0.95048-4.5508 1.3555l22.914-22.914c16.359-16.361 20.455-40.516 12.193-59.494l21.441-21.441c9.877-9.878 16.156-23.876 16.156-39.271 0-26.357-18.404-48.625-41.76-53.119 13.338-19.692 10.606-48.452-8.0312-67.09-18.637-18.635-47.396-21.363-67.084-8.0293-4.499-23.352-26.76-41.762-53.117-41.762z" clip-path="url(#b)" clip-rule="evenodd" fill="url(#a)" fill-rule="evenodd" opacity=".42" stroke-linejoin="round" stroke-miterlimit="2" stroke-width="2.355"/> <path d="m400 169.71c-26.357 0-48.626 18.41-53.119 41.762-19.694-13.334-48.453-10.606-67.09 8.0293-18.637 18.639-21.369 47.398-8.0312 67.09-23.356 4.4947-41.76 26.763-41.76 53.119 0 26.357 18.404 48.622 41.76 53.117-13.337 19.691-10.606 48.451 8.0312 67.09 18.637 18.635 47.395 21.365 67.09 8.0274 4.4927 23.355 26.762 41.762 53.119 41.762s48.618-18.406 53.117-41.762c19.688 13.337 48.447 10.608 67.084-8.0274 18.637-18.639 21.369-47.399 8.0312-67.09 23.356-4.4947 41.76-26.761 41.76-53.117 0-26.357-18.404-48.624-41.76-53.119 13.337-19.691 10.606-48.451-8.0312-67.09-18.637-18.635-47.396-21.363-67.084-8.0293-4.4988-23.352-26.76-41.762-53.117-41.762zm0 68c56.29 0 102 45.705 102 102s-45.708 102-102 102c-56.296 0-102-45.703-102-102s45.704-102 102-102zm0 17c-46.913 0-85 38.087-85 85s38.087 84.996 85 84.996c46.907 0 84.992-38.083 84.992-84.996s-38.085-85-84.992-85zm-58.336 225.83c-13.648 5.6347-29.219 5.8826-43.51 0.93555l-33.316 124.34c-0.42964 1.6034 0.055 3.3132 1.2637 4.4551 1.2091 1.14 2.9449 1.5248 4.5234 1.0039 13.246-4.3847 38.395-12.709 38.395-12.709s17.617 19.784 26.898 30.205c1.1038 1.2396 2.8017 1.7741 4.416 1.3906 1.6176-0.38455 2.8926-1.6231 3.3223-3.2266l30.516-113.88c-14.726-6.4176-26.513-18.086-32.508-32.512zm116.67 2e-3c-5.9972 14.426-17.783 26.096-32.51 32.514l30.514 113.88c0.42963 1.6034 1.7047 2.842 3.3223 3.2266 1.6171 0.38271 3.3133-0.15223 4.4199-1.3926 9.2791-10.42 26.895-30.203 26.895-30.203s25.15 8.323 38.398 12.707c1.5757 0.52161 3.3132 0.13729 4.5195-1.002 1.2087-1.1418 1.6933-2.8517 1.2637-4.4551l-33.316-124.34c-14.291 4.9476-29.86 4.7009-43.506-0.9336z" clip-rule="evenodd" fill="#fff" fill-rule="evenodd" stroke-linejoin="round" stroke-miterlimit="2" stroke-width="2.355"/> </svg>